<?xml version="1.0" encoding="UTF-8"?>
<svg xmlns="http://www.w3.org/2000/svg" xmlns:xlink="http://www.w3.org/1999/xlink" width="260px" height="260px" viewBox="0 0 200 200" version="1.1">
  <g id="surface1">
    <path style=" stroke:none;fill-rule:nonzero;fill:rgb(23.921569%,60%,33.72549%);fill-opacity:1;" d="M 193.328125 52.710938 L 193.328125 136.671875 C 193.328125 156.882812 176.882812 173.347656 156.652344 173.347656 L 43.328125 173.347656 C 23.117188 173.347656 6.652344 156.902344 6.652344 136.671875 L 6.652344 69.132812 C 6.652344 69.132812 6.730469 69.210938 6.769531 69.25 L 26.652344 89.132812 L 26.652344 136.652344 C 26.652344 145.847656 34.132812 153.328125 43.328125 153.328125 L 156.652344 153.328125 C 165.847656 153.328125 173.328125 145.847656 173.328125 136.652344 L 173.328125 60.808594 L 100 134.132812 L 20.980469 55.117188 C 16.191406 50.328125 14.769531 43.210938 17.367188 36.960938 C 19.941406 30.730469 25.960938 26.691406 32.710938 26.671875 L 67.808594 26.671875 C 74.039062 26.671875 79.902344 29.097656 84.308594 33.5 L 100 49.191406 L 115.691406 33.5 C 120.097656 29.097656 125.960938 26.671875 132.191406 26.671875 L 150.867188 26.671875 C 150.867188 26.671875 150.789062 26.75 150.75 26.789062 L 130.210938 47.328125 C 130.078125 47.421875 129.960938 47.539062 129.847656 47.652344 L 100.019531 77.480469 L 70.191406 47.652344 C 69.558594 47.019531 68.730469 46.671875 67.828125 46.671875 L 40.828125 46.671875 L 100.019531 105.867188 L 164.902344 40.980469 C 169.691406 36.191406 176.808594 34.769531 183.058594 37.367188 C 189.289062 39.941406 193.328125 45.980469 193.347656 52.710938 Z M 193.328125 52.710938 "></path>
  </g>
</svg>
